<?xml version="1.0" encoding="utf-8"?>
<!-- Uploaded to: SVG Repo, www.svgrepo.com, Generator: SVG Repo Mixer Tools -->
<svg width="20px" height="20px" viewBox="0 0 1024 1024" class="icon"  version="1.1" xmlns="http://www.w3.org/2000/svg"><path d="M383.656 640.346c-8.682-8.681-16.464-17.895-23.816-27.34L64 908.846 115.154 960l295.84-295.84c-9.444-7.35-18.658-15.133-27.338-23.814z" fill="#152B3C" /><path d="M384.616 639.386c-8.682-8.682-16.854-17.505-24.776-26.38l-87.996 87.996 16.809 85.501L410.994 664.16c-8.873-7.92-17.697-16.093-26.378-24.774z" fill="#070707" /><path d="M326.117864 697.885987a371.319 371.319 0 1 0 525.115201-525.133531 371.319 371.319 0 1 0-525.115201 525.133531Z" fill="#2577FF" /><path d="M382.928246 641.074209a290.974 290.974 0 1 0 411.492195-411.506559 290.974 290.974 0 1 0-411.492195 411.506559Z" fill="#EEEEEE" /><path d="M397.744 274.006c113.632-113.633 297.866-113.633 411.498 0 26.972 26.968 47.328 57.995 61.497 91.035-12.311-49.616-37.526-96.69-76.308-135.469-113.632-113.632-297.866-113.632-411.498 0-86.66 86.655-107.017 214.304-61.497 320.458-23.756-95.758 1.459-201.178 76.308-276.024z" fill="#070707" /></svg>